<?xml version="1.0" encoding="utf-8"?>
<!-- Generator: Adobe Illustrator 17.0.0, SVG Export Plug-In . SVG Version: 6.00 Build 0)  -->
<!DOCTYPE svg PUBLIC "-//W3C//DTD SVG 1.1//EN" "http://www.w3.org/Graphics/SVG/1.1/DTD/svg11.dtd">
<svg version="1.1" id="Ebene_1" xmlns="http://www.w3.org/2000/svg" xmlns:xlink="http://www.w3.org/1999/xlink" x="0px" y="0px"
	 width="400px" height="500px" viewBox="0 0 400 500" enable-background="new 0 0 400 500" xml:space="preserve">
<g>
	<path stroke="#070707" stroke-width="1.0426" stroke-miterlimit="10" d="M84.476,500.469l7.165-60.188l-15.764-42.276
		l15.764-22.929c0,0,1.433-22.213-15.764-28.661c0,0-28.661-32.96-32.244-48.723c-3.583-15.765-13.614-21.497-17.913-22.213
		c-4.299-0.717-7.882-12.897-8.598-25.795c-0.717-12.898,0-42.275-7.165-59.472c-7.165-17.197,14.33-33.677,17.912-34.394
		c3.583-0.717,32.961-2.15,36.544-13.614c0,0,8.598-22.213,13.614-41.559c0,0,3.583-11.465,30.811-8.598
		c0,0,5.732,7.679,27.944-0.46c22.213-8.138,32.96-26.052,32.96-26.052s5.732-36.543,39.41-32.244c0,0,22.929,16.48,50.157,15.047
		c27.229-1.433,33.677-14.316,39.409-15.398c5.733-1.082,30.811-9.68,37.977,16.115c0,0,13.614,101.031,7.165,133.275
		c0,0-5.732,18.629,10.748,29.378c16.479,10.748,33.677,22.213,33.677,29.378c0,7.165,4.3,35.826,4.3,35.826
		s-16.481,30.095-20.779,31.527c-4.3,1.434-63.055,37.26-63.055,37.26s2.149,6.45,2.149,12.898s-6.448,26.511-6.448,26.511
		l16.48,115.362H84.476z"/>
	<polygon fill="#4B4B4B" stroke="#CECCCC" stroke-width="1.0426" stroke-miterlimit="10" points="118.989,498.559 124.363,445.654 
		156.009,439.561 156.009,498.559 	"/>
	<path fill="#4B4B4B" stroke="#CECCCC" stroke-width="1.0426" stroke-miterlimit="10" d="M173.565,500.469V415.44l20.78-6.21
		l-12.898-9.791h38.454l-30.095-11.465l75.952-6.21L282,367.435h2.149v79.772c0,0,7.882,3.583,8.599-1.432
		c0.715-5.016-2.15-73.803-2.15-73.803s2.627-9.553,5.494-2.388c2.866,7.165,5.971,65.921,5.971,65.921l5.255,63.054h-38.872
		l-13.434-55.95c0,0-1.254-13.614-6.091,1.434c0,0-2.508,11.286-2.15,14.689c0.358,3.404,3.762,39.828,3.762,39.828L173.565,500.469
		z"/>
	<path fill="#4B4B4B" stroke="#CECCCC" stroke-width="1.0426" stroke-miterlimit="10" d="M324.872,221.022v-24.601
		c0,0,4.181-14.57,5.733-13.734s2.985,6.807,3.224,9.076c0.239,2.269,3.821,17.316,11.465,23.048c0,0,13.137,12.179,22.452,14.927
		c0,0,13.016,9.434,12.898,20.659c-0.12,11.226,0,26.87,0,26.87s-0.956,7.404-13.494,13.137
		c-12.54,5.732-22.332,10.389-22.332,10.389s-6.569,3.224-5.136-0.717s6.569-34.155,2.029-44.186c0,0-1.91-10.151-4.776-8.598
		c-2.866,1.552-2.149-5.971-2.029,3.224c0.118,9.195-0.599,38.93-0.599,38.93s1.792,12.302-8.717,13.137
		c-10.509,0.836-32.483,1.195-32.483,1.195h-37.14h-34.871c0,0-2.985,0.595-2.03-1.674c0.955-2.269,3.105-3.105,5.374-3.105
		c2.269,0,49.082,0.358,49.082,0.358s10.866-0.717,11.106-9.555c0.239-8.836,1.435-27.585-4.059-32.84
		c-5.494-5.256-5.971-11.346-23.645-10.868c-17.676,0.478-19.945,0.597-19.945,0.597s-6.687,0.956-2.03,3.344
		c4.658,2.388,3.942,2.509,11.584,1.911c7.642-0.597,23.166-3.583,25.914,3.701c2.748,7.285,6.568,13.733,6.448,20.421l0.24,9.077
		c0,0,3.103,7.165-13.257,7.882c-16.36,0.715-20.062,0.715-20.062,0.715l-26.393,0.599c0,0-8.12-0.479-8.12-10.271
		c0-9.792,0-23.049,0-23.049s1.195-8.36,10.389-13.733c9.195-5.374,23.288-12.898,40.843-12.539c0,0,38.334-1.432,43.11-10.986
		c0,0,7.404-2.149,12.658-0.716C323.561,224.482,324.872,221.022,324.872,221.022z"/>
	<path fill="#4B4B4B" stroke="#CECCCC" stroke-width="1.0426" stroke-miterlimit="10" d="M90.687,184.002
		c0,0,30.87,40.244,31.049,40.961c0.179,0.716,14.152,19.525,14.152,19.525s6.628,6.807-1.791,12.36
		c-8.42,5.553-24.183,15.227-24.183,15.227s-12.36,5.832-23.825-6.489c-11.465-12.32-36.006-36.858-36.006-36.858
		s-23.108-23.828-24.72-27.41c-1.612-3.583-12.539-15.406,0-26.512c12.539-11.106,14.151-10.927,20.959-12.002
		c6.807-1.075,19.346,1.612,28.84-18.272c0,0,8.061-7.345,8.598-25.258c0,0-2.866-14.51,10.927-15.047
		c0,0,17.018,1.074,17.376,2.149c0,0,16.781,1.612,26.304-4.299l23.494-14.151c0,0,12.539-8.42,6.091,1.612
		c0,0-6.628,8.24-6.269,14.867c0.358,6.628,0.179,24.721,0.179,24.721s1.897,18.272,7.935,30.095
		c6.038,11.822,16.965,27.765,14.457,36.364c-2.508,8.598-3.941,12.539-13.256,17.913c-9.314,5.374-11.643,7.882-18.988,5.195
		c-7.344-2.688-16.659-1.792-16.659-1.792l-4.299,0.179c0,0-3.045,1.075-2.866-8.777c0.179-9.852,0.179-15.585-2.508-23.466
		c-2.687-7.882-10.748-32.603-10.748-32.603s-6.09-13.434-7.524-14.51c-1.433-1.075-8.419-12.897-9.852,3.403
		c-1.434,16.302-0.179,22.392-0.179,22.392s-1.254,8.778-10.39-2.328c0,0-4.299-7.165-11.464-2.687
		c-7.165,4.478-12.002,7.165-1.791,11.106c10.21,3.941,14.151,7.925,14.868,9.426C89.313,180.538,90.687,184.002,90.687,184.002z"/>
	<path fill="#4B4B4B" stroke="#CECCCC" stroke-width="1.0426" stroke-miterlimit="10" d="M175.713,114.737
		c0,0-2.149-34.393,0-40.365c2.15-5.972,8.26-17.675,8.907-23.168c0,0,6.14-11.943,26.204-6.21
		c20.062,5.732,10.51,6.21,21.735,7.881c0,0,40.84,11.465,59.233-2.149c0,0,8.836-10.509,16.003-9.554
		c7.165,0.955,18.63,7.165,19.346,14.569c0.717,7.404,6.926,20.063,6.209,50.157c-0.717,30.095-9.792,48.247-10.509,51.352
		c-0.715,3.105-2.149,14.57-8.598,20.302c-6.448,5.732-16.002,13.853-29.856,9.315l-11.704,1.325c0,0-14.092-2.042-16.241-13.984
		c-2.15-11.942-0.239-74.281-0.239-74.281s9.077-12.658,9.315-16.957c0.239-4.299-1.911-16.241-8.359-8.598
		c-6.449,7.643-4.538,7.837-9.315,10.247c-4.777,2.411-4.539,4.8-3.344,5.038c1.194,0.239,3.105,11.703,3.105,11.703l-2.15,62.099
		l-0.717,14.571c0,0,1.673,8.598-15.047,15.047c-16.718,6.449-21.991,2.628-29.147,0c-7.156-2.628-8.112-21.258-8.351-23.885
		c-0.238-2.626-5.97-51.59-5.97-51.59s-5.016-7.644-10.033-1.433L175.713,114.737z"/>
</g>
</svg>
