<?xml version="1.0" encoding="utf-8"?>
<!-- Generator: Adobe Illustrator 17.0.0, SVG Export Plug-In . SVG Version: 6.00 Build 0)  -->
<!DOCTYPE svg PUBLIC "-//W3C//DTD SVG 1.1//EN" "http://www.w3.org/Graphics/SVG/1.1/DTD/svg11.dtd">
<svg version="1.1" id="Ebene_1" xmlns="http://www.w3.org/2000/svg" xmlns:xlink="http://www.w3.org/1999/xlink" x="0px" y="0px"
	 width="400px" height="500px" viewBox="0 0 400 500" enable-background="new 0 0 400 500" xml:space="preserve">
<path stroke="#070707" stroke-width="1.0426" stroke-miterlimit="10" d="M84.2,500l7.1-59.9L75.6,398l15.7-22.8
	c0,0,1.4-22.1-15.7-28.5c0,0-28.5-32.8-32.1-48.5C40,282.4,30,276.7,25.7,276c-4.3-0.7-7.8-12.8-8.6-25.7c-0.7-12.8,0-42.1-7.1-59.2
	c-7.1-17.1,14.3-33.5,17.8-34.2c3.6-0.7,32.8-2.1,36.4-13.6c0,0,8.6-22.1,13.6-41.4c0,0,3.6-11.4,30.7-8.6c0,0,5.7,7.6,27.8-0.5
	c22.1-8.1,32.8-25.9,32.8-25.9s5.7-36.4,39.2-32.1c0,0,22.8,16.4,49.9,15c27.1-1.4,33.5-14.3,39.2-15.3c5.7-1.1,30.7-9.6,37.8,16
	c0,0,13.6,100.6,7.1,132.7c0,0-5.7,18.5,10.7,29.3c16.4,10.7,33.5,22.1,33.5,29.3c0,7.1,4.3,35.7,4.3,35.7s-16.4,30-20.7,31.4
	c-4.3,1.4-62.8,37.1-62.8,37.1s2.1,6.4,2.1,12.8s-6.4,26.4-6.4,26.4L319.6,500H84.2z"/>
<polygon fill="#442323" points="118.6,498.1 123.9,445.4 155.4,439.4 155.4,498.1 "/>
<path fill="#442323" d="M172.9,500v-84.7l20.7-6.2l-12.8-9.7H219l-30-11.4l75.6-6.2l16.2-14.3h2.1V447c0,0,7.8,3.6,8.6-1.4
	c0.7-5-2.1-73.5-2.1-73.5s2.6-9.5,5.5-2.4c2.9,7.1,5.9,65.6,5.9,65.6l5.2,62.8h-38.7L254,442.4c0,0-1.2-13.6-6.1,1.4
	c0,0-2.5,11.2-2.1,14.6c0.4,3.4,3.7,39.7,3.7,39.7L172.9,500z"/>
<path fill="#442323" d="M323.6,221.8v-24.5c0,0,4.2-14.5,5.7-13.7s3,6.8,3.2,9c0.2,2.3,3.8,17.2,11.4,22.9c0,0,13.1,12.1,22.4,14.9
	c0,0,13,9.4,12.8,20.6c-0.1,11.2,0,26.8,0,26.8s-1,7.4-13.4,13.1c-12.5,5.7-22.2,10.3-22.2,10.3s-6.5,3.2-5.1-0.7
	c1.4-3.9,6.5-34,2-44c0,0-1.9-10.1-4.8-8.6c-2.9,1.5-2.1-5.9-2,3.2c0.1,9.2-0.6,38.8-0.6,38.8s1.8,12.3-8.7,13.1
	c-10.5,0.8-32.3,1.2-32.3,1.2h-37h-34.7c0,0-3,0.6-2-1.7s3.1-3.1,5.4-3.1c2.3,0,48.9,0.4,48.9,0.4s10.8-0.7,11.1-9.5
	c0.2-8.8,1.4-27.5-4-32.7c-5.5-5.2-5.9-11.3-23.5-10.8c-17.6,0.5-19.9,0.6-19.9,0.6s-6.7,1-2,3.3c4.6,2.4,3.9,2.5,11.5,1.9
	c7.6-0.6,23.1-3.6,25.8,3.7c2.7,7.3,6.5,13.7,6.4,20.3l0.2,9c0,0,3.1,7.1-13.2,7.8c-16.3,0.7-20,0.7-20,0.7l-26.3,0.6
	c0,0-8.1-0.5-8.1-10.2c0-9.7,0-22.9,0-22.9s1.2-8.3,10.3-13.7c9.2-5.4,23.2-12.8,40.7-12.5c0,0,38.2-1.4,42.9-10.9
	c0,0,7.4-2.1,12.6-0.7C322.2,225.2,323.6,221.8,323.6,221.8z"/>
<path fill="#442323" d="M90.4,184.9c0,0,30.7,40.1,30.9,40.8c0.2,0.7,14.1,19.4,14.1,19.4s6.6,6.8-1.8,12.3
	c-8.4,5.5-24.1,15.2-24.1,15.2s-12.3,5.8-23.7-6.5c-11.4-12.3-35.9-36.7-35.9-36.7s-23-23.7-24.6-27.3c-1.6-3.6-12.5-15.3,0-26.4
	c12.5-11.1,14.1-10.9,20.9-12c6.8-1.1,19.3,1.6,28.7-18.2c0,0,8-7.3,8.6-25.1c0,0-2.9-14.4,10.9-15c0,0,16.9,1.1,17.3,2.1
	c0,0,16.7,1.6,26.2-4.3l23.4-14.1c0,0,12.5-8.4,6.1,1.6c0,0-6.6,8.2-6.2,14.8c0.4,6.6,0.2,24.6,0.2,24.6s1.9,18.2,7.9,30
	c6,11.8,16.9,27.6,14.4,36.2c-2.5,8.6-3.9,12.5-13.2,17.8c-9.3,5.4-11.6,7.8-18.9,5.2c-7.3-2.7-16.6-1.8-16.6-1.8l-4.3,0.2
	c0,0-3,1.1-2.9-8.7c0.2-9.8,0.2-15.5-2.5-23.4c-2.7-7.8-10.7-32.5-10.7-32.5s-6.1-13.4-7.5-14.4c-1.4-1.1-8.4-12.8-9.8,3.4
	c-1.4,16.2-0.2,22.3-0.2,22.3s-1.2,8.7-10.3-2.3c0,0-4.3-7.1-11.4-2.7c-7.1,4.5-12,7.1-1.8,11.1c10.2,3.9,14.1,7.9,14.8,9.4
	C89,181.4,90.4,184.9,90.4,184.9z"/>
<path fill="#442323" d="M175,115.9c0,0-2.1-34.2,0-40.2c2.1-5.9,8.2-17.6,8.9-23.1c0,0,6.1-11.9,26.1-6.2c20,5.7,10.5,6.2,21.6,7.8
	c0,0,40.7,11.4,59-2.1c0,0,8.8-10.5,15.9-9.5c7.1,1,18.5,7.1,19.3,14.5c0.7,7.4,6.9,20,6.2,49.9c-0.7,30-9.8,48-10.5,51.1
	c-0.7,3.1-2.1,14.5-8.6,20.2c-6.4,5.7-15.9,13.8-29.7,9.3l-11.7,1.3c0,0-14-2-16.2-13.9c-2.1-11.9-0.2-74-0.2-74s9-12.6,9.3-16.9
	c0.2-4.3-1.9-16.2-8.3-8.6c-6.4,7.6-4.5,7.8-9.3,10.2c-4.8,2.4-4.5,4.8-3.3,5c1.2,0.2,3.1,11.7,3.1,11.7l-2.1,61.8l-0.7,14.5
	c0,0,1.7,8.6-15,15c-16.6,6.4-21.9,2.6-29,0c-7.1-2.6-8.1-21.2-8.3-23.8c-0.2-2.6-5.9-51.4-5.9-51.4s-5-7.6-10-1.4L175,115.9z"/>
</svg>
